<?xml version="1.0" encoding="utf-8"?>
<!-- Generator: Adobe Illustrator 21.1.0, SVG Export Plug-In . SVG Version: 6.00 Build 0)  -->
<svg version="1.1" id="Layer_1" xmlns="http://www.w3.org/2000/svg" xmlns:xlink="http://www.w3.org/1999/xlink" x="0px" y="0px"
	 viewBox="0 0 841.9 595.3" style="enable-background:new 0 0 841.9 595.3;" xml:space="preserve">
<style type="text/css">
	.st0{clip-path:url(#SVGID_2_);}
	.st1{fill:#F2F2F2;}
</style>
<g>
	<defs>
		<rect id="SVGID_1_" x="203.6" y="166" width="433.4" height="260"/>
	</defs>
	<clipPath id="SVGID_2_">
		<use xlink:href="#SVGID_1_"  style="overflow:visible;"/>
	</clipPath>
	<g class="st0">
		<path class="st1" d="M327.5,196.6c14.2-11,28.8-22.3,45.9-27.8c17.1-5.5,37.6-4.1,50.8,8.1c13.9,12.9,17.7,35.2,33.9,45
			c22.3,13.4,54.9-4.9,75.8,10.6c11,8.2,14.6,23.2,24,33.2c11.7,12.5,30.1,15.3,46.3,20.7s33.6,17.5,33,34.6
			c-0.5,15.2-15,26.3-18.8,41.1c-4.3,16.8,5.8,35.8-1.9,51.4c-4.1,8.3-12.7,13.7-21.6,16.1c-8.9,2.4-18.3,2.3-27.6,2.1
			c-98.4-1.7-196.9-3.4-295.3-5.1c-17.1-0.3-35.7-1.1-49-11.9c-13.6-11.1-18.2-30.5-15.9-47.9c2.3-17.4,10.5-33.4,18.5-49.1
			c10.3-20.1,18-46.4,31.5-64.4C274.3,230.8,305.3,213.8,327.5,196.6z"/>
	</g>
</g>
</svg>
