<?xml version="1.0" encoding="utf-8"?>
<!-- Generator: Adobe Illustrator 21.1.0, SVG Export Plug-In . SVG Version: 6.00 Build 0)  -->
<svg version="1.1" id="Layer_1" xmlns="http://www.w3.org/2000/svg" xmlns:xlink="http://www.w3.org/1999/xlink" x="0px" y="0px"
	 viewBox="0 0 954.1 695.3" style="enable-background:new 0 0 954.1 695.3;" xml:space="preserve">
<style type="text/css">
	.st0{clip-path:url(#SVGID_2_);}
	.st1{fill:#F2F2F2;}
</style>
<g>
	<defs>
		<rect id="SVGID_1_" x="296" y="233" width="360" height="272"/>
	</defs>
	<clipPath id="SVGID_2_">
		<use xlink:href="#SVGID_1_"  style="overflow:visible;"/>
	</clipPath>
	<g class="st0">
		<path class="st1" d="M602.4,444.7c-11.8,13.6-23.9,27.4-39.7,36.1c-15.7,8.7-36.1,11.3-51.4,1.9c-16.2-9.9-24.1-31.1-42-37.6
			c-24.5-8.8-52.9,15.5-76.4,4.2c-12.4-5.9-18.8-19.9-29.9-27.9c-13.9-10-32.5-9.2-49.5-11.3c-17-2.1-36.3-10.6-39.1-27.5
			c-2.4-15,9.6-28.7,10.5-43.9c1-17.3-12.6-34-8.1-50.8c2.4-8.9-8.2-70.9,0.1-75c8.3-4.1,17.5-5.8,26.7-7.4
			c96.9-17.3,211.8,20.3,308.7,3c16.9-3,35.2-5.8,50.4,2.2c15.5,8.2,23.7,26.4,24.8,43.9s-3.8,34.8-8.7,51.7
			c-6.2,21.7-8.7,49-18.5,69.3C648,400.9,620.8,423.5,602.4,444.7z"/>
	</g>
</g>
</svg>
